G04*
G04 #@! TF.GenerationSoftware,Altium Limited,CircuitStudio,1.5.2 (30)*
G04*
G04 Layer_Color=11619584*
%FSLAX25Y25*%
%MOIN*%
G70*
G01*
G75*
%ADD33C,0.00787*%
%ADD34C,0.00500*%
D33*
X301994Y304300D02*
G03*
X301994Y304300I-394J0D01*
G01*
D02*
G03*
X301994Y304300I-394J0D01*
G01*
X323694Y295500D02*
G03*
X323694Y295500I-394J0D01*
G01*
D02*
G03*
X323694Y295500I-394J0D01*
G01*
X339744Y273545D02*
G03*
X339744Y273545I-394J0D01*
G01*
D02*
G03*
X339744Y273545I-394J0D01*
G01*
X305397Y336500D02*
G03*
X305397Y336500I-394J0D01*
G01*
D02*
G03*
X305397Y336500I-394J0D01*
G01*
D34*
X301769Y274339D02*
Y304261D01*
X260431Y274339D02*
Y304261D01*
X301769D01*
X260431Y274339D02*
X301769D01*
Y304261D01*
X260431Y274339D02*
Y304261D01*
X301769D01*
X260431Y274339D02*
X301769D01*
X323131Y295539D02*
Y325461D01*
X364469Y295539D02*
Y325461D01*
X323131Y295539D02*
X364469D01*
X323131Y325461D02*
X364469D01*
X323131Y295539D02*
Y325461D01*
X364469Y295539D02*
Y325461D01*
X323131Y295539D02*
X364469D01*
X323131Y325461D02*
X364469D01*
X253992Y223248D02*
X261984Y231241D01*
X300016D02*
X308008Y223248D01*
X253992Y193248D02*
Y223248D01*
X261984Y231241D02*
X300016D01*
X308008Y193248D02*
Y223248D01*
X253992Y193248D02*
X308008D01*
X253992Y223248D02*
X261984Y231241D01*
X300016D02*
X308008Y223248D01*
X253992Y193248D02*
Y223248D01*
X261984Y231241D02*
X300016D01*
X308008Y193248D02*
Y223248D01*
X253992Y193248D02*
X308008D01*
X227068Y244910D02*
Y300579D01*
Y244910D02*
X285926D01*
Y300579D01*
X227068D02*
X285926D01*
X227068Y244910D02*
Y300579D01*
Y244910D02*
X285926D01*
Y300579D01*
X227068D02*
X285926D01*
X339508Y252170D02*
X359192D01*
X339508Y267918D02*
X359192D01*
Y252170D02*
Y267918D01*
X339508Y252170D02*
Y267918D01*
Y252170D02*
X359192D01*
X339508Y267918D02*
X359192D01*
Y252170D02*
Y267918D01*
X339508Y252170D02*
Y267918D01*
X263834Y366461D02*
X305172D01*
X263834Y336539D02*
X305172D01*
X263834D02*
Y366461D01*
X305172Y336539D02*
Y366461D01*
X263834D02*
X305172D01*
X263834Y336539D02*
X305172D01*
X263834D02*
Y366461D01*
X305172Y336539D02*
Y366461D01*
M02*
