G04*
G04 #@! TF.GenerationSoftware,Altium Limited,CircuitStudio,1.5.2 (30)*
G04*
G04 Layer_Color=11767835*
%FSLAX25Y25*%
%MOIN*%
G70*
G01*
G75*
%ADD10R,0.02323X0.08071*%
%ADD12R,0.03150X0.03543*%
%ADD13R,0.03543X0.03150*%
%ADD17C,0.13000*%
%ADD18R,0.05906X0.05906*%
%ADD19C,0.05906*%
%ADD20C,0.06000*%
%ADD21C,0.05000*%
%ADD22C,0.15000*%
%ADD24R,0.04882X0.03150*%
%ADD25R,0.09843X0.03740*%
%ADD26R,0.08661X0.04528*%
%ADD27R,0.04921X0.04567*%
%ADD28R,0.04724X0.04567*%
%ADD29R,0.04528X0.05906*%
%ADD30R,0.02323X0.07756*%
%ADD31R,0.02756X0.03543*%
D10*
X302003Y369827D02*
D03*
X297003D02*
D03*
X292003D02*
D03*
X287003D02*
D03*
X282003D02*
D03*
X277003D02*
D03*
X272003D02*
D03*
X267003D02*
D03*
Y333173D02*
D03*
X272003D02*
D03*
X277003D02*
D03*
X282003D02*
D03*
X287003D02*
D03*
X292003D02*
D03*
X297003D02*
D03*
X302003D02*
D03*
D12*
X302259Y377900D02*
D03*
X296747D02*
D03*
X299959Y324800D02*
D03*
X294447D02*
D03*
X304806Y317545D02*
D03*
X299294D02*
D03*
X281747Y324800D02*
D03*
X287259D02*
D03*
X274559Y324800D02*
D03*
X269047D02*
D03*
D13*
X327550Y250300D02*
D03*
Y244789D02*
D03*
X334150Y250300D02*
D03*
Y244789D02*
D03*
D17*
X238650Y380644D02*
D03*
X382050D02*
D03*
X238650Y204344D02*
D03*
X382050D02*
D03*
D18*
X373850Y253145D02*
D03*
D19*
Y263144D02*
D03*
Y273145D02*
D03*
Y283144D02*
D03*
X307496Y206260D02*
D03*
X254504D02*
D03*
X307496Y218229D02*
D03*
X254504D02*
D03*
D20*
X251000Y351000D02*
D03*
Y281000D02*
D03*
Y291000D02*
D03*
X301000Y241000D02*
D03*
X271000D02*
D03*
X261000D02*
D03*
X311000D02*
D03*
Y371000D02*
D03*
Y361000D02*
D03*
Y351000D02*
D03*
Y331000D02*
D03*
Y341000D02*
D03*
Y311000D02*
D03*
Y321000D02*
D03*
Y271000D02*
D03*
Y281000D02*
D03*
Y251000D02*
D03*
Y261000D02*
D03*
X251000D02*
D03*
Y251000D02*
D03*
Y271000D02*
D03*
Y301000D02*
D03*
Y321000D02*
D03*
Y311000D02*
D03*
Y341000D02*
D03*
Y331000D02*
D03*
Y361000D02*
D03*
Y371000D02*
D03*
Y241000D02*
D03*
X311000Y301000D02*
D03*
Y291000D02*
D03*
D21*
X333210Y344744D02*
D03*
X345030D02*
D03*
X356850D02*
D03*
Y356544D02*
D03*
X345030D02*
D03*
X333210D02*
D03*
X356570Y228644D02*
D03*
X344750D02*
D03*
Y240444D02*
D03*
X356570D02*
D03*
D22*
X345030Y373545D02*
D03*
X350650Y211645D02*
D03*
D24*
X234430Y284162D02*
D03*
Y279831D02*
D03*
Y275500D02*
D03*
Y271170D02*
D03*
Y266839D02*
D03*
Y262508D02*
D03*
Y258177D02*
D03*
Y253847D02*
D03*
D25*
X236911Y301268D02*
D03*
D26*
X236320Y244615D02*
D03*
X281517Y300874D02*
D03*
D27*
X244785Y246209D02*
D03*
D28*
X280218D02*
D03*
D29*
X284647Y283926D02*
D03*
Y253296D02*
D03*
D30*
X341850Y250300D02*
D03*
X346850D02*
D03*
X351850D02*
D03*
X356850D02*
D03*
Y269789D02*
D03*
X351850D02*
D03*
X346850D02*
D03*
X341850D02*
D03*
D31*
X356844Y288345D02*
D03*
X362750D02*
D03*
X356844Y283045D02*
D03*
X362750D02*
D03*
X356844Y277745D02*
D03*
X362750D02*
D03*
X298944Y263600D02*
D03*
X304850D02*
D03*
X298944Y269200D02*
D03*
X304850D02*
D03*
M02*
