G04*
G04 #@! TF.GenerationSoftware,Altium Limited,CircuitStudio,1.5.2 (30)*
G04*
G04 Layer_Color=7318015*
%FSLAX25Y25*%
%MOIN*%
G70*
G01*
G75*
%ADD10R,0.02323X0.08071*%
%ADD11C,0.40158*%
%ADD12R,0.03150X0.03543*%
%ADD13R,0.03543X0.03150*%
D10*
X298600Y307627D02*
D03*
X293600D02*
D03*
X288600D02*
D03*
X283600D02*
D03*
X278600D02*
D03*
X273600D02*
D03*
X268600D02*
D03*
X263600D02*
D03*
Y270973D02*
D03*
X268600D02*
D03*
X273600D02*
D03*
X278600D02*
D03*
X283600D02*
D03*
X288600D02*
D03*
X293600D02*
D03*
X298600D02*
D03*
X326300Y292173D02*
D03*
X331300D02*
D03*
X336300D02*
D03*
X341300D02*
D03*
X346300D02*
D03*
X351300D02*
D03*
X356300D02*
D03*
X361300D02*
D03*
Y328827D02*
D03*
X356300D02*
D03*
X351300D02*
D03*
X346300D02*
D03*
X341300D02*
D03*
X336300D02*
D03*
X331300D02*
D03*
X326300D02*
D03*
D11*
X281000Y212245D02*
D03*
D12*
X293606Y317545D02*
D03*
X288094D02*
D03*
X326294Y337345D02*
D03*
X331806D02*
D03*
X328444Y283800D02*
D03*
X333956D02*
D03*
X346456Y283800D02*
D03*
X340944D02*
D03*
X353544Y283800D02*
D03*
X359056D02*
D03*
D13*
X368600Y304044D02*
D03*
Y309556D02*
D03*
M02*
