G04*
G04 #@! TF.GenerationSoftware,Altium Limited,CircuitStudio,1.5.2 (30)*
G04*
G04 Layer_Color=20142*
%FSLAX25Y25*%
%MOIN*%
G70*
G01*
G75*
%ADD38R,0.03123X0.08871*%
%ADD39C,0.40957*%
%ADD40R,0.03950X0.04343*%
%ADD41R,0.04343X0.03950*%
%ADD42C,0.13800*%
%ADD43R,0.06706X0.06706*%
%ADD44C,0.06706*%
%ADD45C,0.06800*%
%ADD46C,0.05800*%
%ADD47C,0.15800*%
%ADD48C,0.03300*%
D38*
X298600Y307627D02*
D03*
X293600D02*
D03*
X288600D02*
D03*
X283600D02*
D03*
X278600D02*
D03*
X273600D02*
D03*
X268600D02*
D03*
X263600D02*
D03*
Y270973D02*
D03*
X268600D02*
D03*
X273600D02*
D03*
X278600D02*
D03*
X283600D02*
D03*
X288600D02*
D03*
X293600D02*
D03*
X298600D02*
D03*
X326300Y292173D02*
D03*
X331300D02*
D03*
X336300D02*
D03*
X341300D02*
D03*
X346300D02*
D03*
X351300D02*
D03*
X356300D02*
D03*
X361300D02*
D03*
Y328827D02*
D03*
X356300D02*
D03*
X351300D02*
D03*
X346300D02*
D03*
X341300D02*
D03*
X336300D02*
D03*
X331300D02*
D03*
X326300D02*
D03*
D39*
X281000Y212245D02*
D03*
D40*
X293606Y317545D02*
D03*
X288094D02*
D03*
X326294Y337345D02*
D03*
X331806D02*
D03*
X328444Y283800D02*
D03*
X333956D02*
D03*
X346456Y283800D02*
D03*
X340944D02*
D03*
X353544Y283800D02*
D03*
X359056D02*
D03*
D41*
X368600Y304044D02*
D03*
Y309556D02*
D03*
D42*
X238650Y380644D02*
D03*
X382050D02*
D03*
X238650Y204344D02*
D03*
X382050D02*
D03*
D43*
X373850Y253145D02*
D03*
D44*
Y263144D02*
D03*
Y273145D02*
D03*
Y283144D02*
D03*
X307496Y206260D02*
D03*
X254504D02*
D03*
X307496Y218229D02*
D03*
X254504D02*
D03*
D45*
X251000Y351000D02*
D03*
Y281000D02*
D03*
Y291000D02*
D03*
X301000Y241000D02*
D03*
X271000D02*
D03*
X261000D02*
D03*
X311000D02*
D03*
Y371000D02*
D03*
Y361000D02*
D03*
Y351000D02*
D03*
Y331000D02*
D03*
Y341000D02*
D03*
Y311000D02*
D03*
Y321000D02*
D03*
Y271000D02*
D03*
Y281000D02*
D03*
Y251000D02*
D03*
Y261000D02*
D03*
X251000D02*
D03*
Y251000D02*
D03*
Y271000D02*
D03*
Y301000D02*
D03*
Y321000D02*
D03*
Y311000D02*
D03*
Y341000D02*
D03*
Y331000D02*
D03*
Y361000D02*
D03*
Y371000D02*
D03*
Y241000D02*
D03*
X311000Y301000D02*
D03*
Y291000D02*
D03*
D46*
X333210Y344744D02*
D03*
X345030D02*
D03*
X356850D02*
D03*
Y356544D02*
D03*
X345030D02*
D03*
X333210D02*
D03*
X356570Y228644D02*
D03*
X344750D02*
D03*
Y240444D02*
D03*
X356570D02*
D03*
X293650Y289945D02*
D03*
D47*
X345030Y373545D02*
D03*
X350650Y211645D02*
D03*
D48*
X346900Y263600D02*
D03*
M02*
