G04*
G04 #@! TF.GenerationSoftware,Altium Limited,CircuitStudio,1.5.2 (30)*
G04*
G04 Layer_Color=11767835*
%FSLAX25Y25*%
%MOIN*%
G70*
G01*
G75*
%ADD10R,0.02323X0.08071*%
%ADD11C,0.40158*%
%ADD12R,0.03150X0.03543*%
%ADD13R,0.03543X0.03150*%
%ADD17C,0.13000*%
%ADD18R,0.05906X0.05906*%
%ADD19C,0.05906*%
%ADD20C,0.06000*%
%ADD21C,0.05000*%
%ADD22C,0.15000*%
D10*
X298600Y307627D02*
D03*
X293600D02*
D03*
X288600D02*
D03*
X283600D02*
D03*
X278600D02*
D03*
X273600D02*
D03*
X268600D02*
D03*
X263600D02*
D03*
Y270973D02*
D03*
X268600D02*
D03*
X273600D02*
D03*
X278600D02*
D03*
X283600D02*
D03*
X288600D02*
D03*
X293600D02*
D03*
X298600D02*
D03*
X326300Y292173D02*
D03*
X331300D02*
D03*
X336300D02*
D03*
X341300D02*
D03*
X346300D02*
D03*
X351300D02*
D03*
X356300D02*
D03*
X361300D02*
D03*
Y328827D02*
D03*
X356300D02*
D03*
X351300D02*
D03*
X346300D02*
D03*
X341300D02*
D03*
X336300D02*
D03*
X331300D02*
D03*
X326300D02*
D03*
D11*
X281000Y212245D02*
D03*
D12*
X293606Y317545D02*
D03*
X288094D02*
D03*
X326294Y337345D02*
D03*
X331806D02*
D03*
X328444Y283800D02*
D03*
X333956D02*
D03*
X346456Y283800D02*
D03*
X340944D02*
D03*
X353544Y283800D02*
D03*
X359056D02*
D03*
D13*
X368600Y304044D02*
D03*
Y309556D02*
D03*
D17*
X238650Y380644D02*
D03*
X382050D02*
D03*
X238650Y204344D02*
D03*
X382050D02*
D03*
D18*
X373850Y253145D02*
D03*
D19*
Y263144D02*
D03*
Y273145D02*
D03*
Y283144D02*
D03*
X307496Y206260D02*
D03*
X254504D02*
D03*
X307496Y218229D02*
D03*
X254504D02*
D03*
D20*
X251000Y351000D02*
D03*
Y281000D02*
D03*
Y291000D02*
D03*
X301000Y241000D02*
D03*
X271000D02*
D03*
X261000D02*
D03*
X311000D02*
D03*
Y371000D02*
D03*
Y361000D02*
D03*
Y351000D02*
D03*
Y331000D02*
D03*
Y341000D02*
D03*
Y311000D02*
D03*
Y321000D02*
D03*
Y271000D02*
D03*
Y281000D02*
D03*
Y251000D02*
D03*
Y261000D02*
D03*
X251000D02*
D03*
Y251000D02*
D03*
Y271000D02*
D03*
Y301000D02*
D03*
Y321000D02*
D03*
Y311000D02*
D03*
Y341000D02*
D03*
Y331000D02*
D03*
Y361000D02*
D03*
Y371000D02*
D03*
Y241000D02*
D03*
X311000Y301000D02*
D03*
Y291000D02*
D03*
D21*
X333210Y344744D02*
D03*
X345030D02*
D03*
X356850D02*
D03*
Y356544D02*
D03*
X345030D02*
D03*
X333210D02*
D03*
X356570Y228644D02*
D03*
X344750D02*
D03*
Y240444D02*
D03*
X356570D02*
D03*
D22*
X345030Y373545D02*
D03*
X350650Y211645D02*
D03*
M02*
