M48
;Layer_Color=6321
;FILE_FORMAT=2:5
INCH,LZ
;TYPE=PLATED
T1F00S00C0.01378
T2F00S00C0.02800
T3F00S00C0.03543
T4F00S00C0.03937
T5F00S00C0.04000
T6F00S00C0.04200
T7F00S00C0.11800
T8F00S00C0.12500
%
T01
X03469Y02636
T02
X029365Y0289945
T03
X037385Y0253145
Y0263144
Y0273145
Y0283144
T04
X0254504Y020626
Y0218229
X0307496
Y020626
T05
X0251Y0241
X0261
X0271
X0301
X0311
Y0251
Y0261
Y0271
Y0281
Y0291
Y0301
Y0311
X0251
Y0301
Y0291
Y0281
Y0271
Y0261
Y0251
Y0321
Y0331
Y0341
Y0351
Y0361
Y0371
X0311
Y0361
Y0351
Y0341
Y0331
Y0321
T06
X034475Y0228644
Y0240444
X035657
Y0228644
X035685Y0344744
Y0356544
X034503
Y0344744
X033321
Y0356544
T07
X035065Y0211645
X034503Y0373545
T08
X038205Y0204344
X023865
Y0380644
X038205
M30
